<svg height="480pt" viewBox="0 -4 480 480" width="480pt" xmlns="http://www.w3.org/2000/svg"><g fill="#b94137"><path d="m240 440c-4.417969 0-8-3.582031-8-8v-40c0-4.417969 3.582031-8 8-8s8 3.582031 8 8v40c0 4.417969-3.582031 8-8 8zm0 0"/><path d="m288 440c-4.417969 0-8-3.582031-8-8v-40c0-4.417969 3.582031-8 8-8s8 3.582031 8 8v40c0 4.417969-3.582031 8-8 8zm0 0"/><path d="m336 448c-4.417969 0-8-3.582031-8-8v-48c0-4.417969 3.582031-8 8-8s8 3.582031 8 8v48c0 4.417969-3.582031 8-8 8zm0 0"/><path d="m384 456c-4.417969 0-8-3.582031-8-8v-56c0-4.417969 3.582031-8 8-8s8 3.582031 8 8v56c0 4.417969-3.582031 8-8 8zm0 0"/><path d="m432 472c-4.417969 0-8-3.582031-8-8v-72c0-4.417969 3.582031-8 8-8s8 3.582031 8 8v72c0 4.417969-3.582031 8-8 8zm0 0"/><path d="m96 456c-4.417969 0-8-3.582031-8-8v-56c0-4.417969 3.582031-8 8-8s8 3.582031 8 8v56c0 4.417969-3.582031 8-8 8zm0 0"/><path d="m48 472c-4.417969 0-8-3.582031-8-8v-72c0-4.417969 3.582031-8 8-8s8 3.582031 8 8v72c0 4.417969-3.582031 8-8 8zm0 0"/><path d="m144 448c-4.417969 0-8-3.582031-8-8v-48c0-4.417969 3.582031-8 8-8s8 3.582031 8 8v48c0 4.417969-3.582031 8-8 8zm0 0"/><path d="m192 440c-4.417969 0-8-3.582031-8-8v-40c0-4.417969 3.582031-8 8-8s8 3.582031 8 8v40c0 4.417969-3.582031 8-8 8zm0 0"/></g><path d="m380 140c0 77.320312-62.679688 140-140 140s-140-62.679688-140-140 62.679688-140 140-140 140 62.679688 140 140zm0 0" fill="#f55648"/><path d="m472 392h-464l144-264h176zm0 0" fill="#e4e4e2"/><path d="m264 392h-192v-32c0-17.671875 14.328125-32 32-32h160zm0 0" fill="#f9f9f9"/><path d="m72 352h40v16h-40zm0 0" fill="#64a8b2"/><path d="m264 328h208v64h-208zm0 0" fill="#f9f9f9"/><path d="m472 472h-40c-.757812-.003906-1.511719-.109375-2.238281-.320312l-21.761719-6.34375c-109.707031-32.054688-226.292969-32.054688-336 0l-21.761719 6.34375c-.726562.210937-1.480469.316406-2.238281.320312h-40c-4.417969 0-8-3.582031-8-8v-72c0-4.417969 3.582031-8 8-8h464c4.417969 0 8 3.582031 8 8v72c0 4.417969-3.582031 8-8 8zm-38.855469-16h30.855469v-56h-448v56h30.855469l20.664062-6.023438c112.632813-32.921874 232.328125-32.921874 344.960938 0zm0 0" fill="#c7463b"/><path d="m128 352h16v16h-16zm0 0" fill="#64a8b2"/><path d="m160 352h16v16h-16zm0 0" fill="#64a8b2"/><path d="m192 352h16v16h-16zm0 0" fill="#64a8b2"/><path d="m224 352h16v16h-16zm0 0" fill="#64a8b2"/><path d="m288 352h16v16h-16zm0 0" fill="#64a8b2"/><path d="m320 352h16v16h-16zm0 0" fill="#64a8b2"/><path d="m352 352h16v16h-16zm0 0" fill="#64a8b2"/><path d="m384 352h88v16h-88zm0 0" fill="#64a8b2"/><path d="m472 104h-64c-4.417969 0-8-3.582031-8-8s3.582031-8 8-8h64c4.417969 0 8 3.582031 8 8s-3.582031 8-8 8zm0 0" fill="#aedee2"/><path d="m472 168h-64c-4.417969 0-8-3.582031-8-8s3.582031-8 8-8h64c4.417969 0 8 3.582031 8 8s-3.582031 8-8 8zm0 0" fill="#aedee2"/><path d="m424 136h-56c-4.417969 0-8-3.582031-8-8s3.582031-8 8-8h56c4.417969 0 8 3.582031 8 8s-3.582031 8-8 8zm0 0" fill="#aedee2"/><path d="m472 136h-16c-4.417969 0-8-3.582031-8-8s3.582031-8 8-8h16c4.417969 0 8 3.582031 8 8s-3.582031 8-8 8zm0 0" fill="#aedee2"/><path d="m88 16h-48c-4.417969 0-8-3.582031-8-8s3.582031-8 8-8h48c4.417969 0 8 3.582031 8 8s-3.582031 8-8 8zm0 0" fill="#aedee2"/><path d="m144 80h-120c-4.417969 0-8-3.582031-8-8s3.582031-8 8-8h120c4.417969 0 8 3.582031 8 8s-3.582031 8-8 8zm0 0" fill="#aedee2"/><path d="m176 48h-104c-4.417969 0-8-3.582031-8-8s3.582031-8 8-8h104c4.417969 0 8 3.582031 8 8s-3.582031 8-8 8zm0 0" fill="#aedee2"/><path d="m40 48h-32c-4.417969 0-8-3.582031-8-8s3.582031-8 8-8h32c4.417969 0 8 3.582031 8 8s-3.582031 8-8 8zm0 0" fill="#aedee2"/><path d="m136 16h-16c-4.417969 0-8-3.582031-8-8s3.582031-8 8-8h16c4.417969 0 8 3.582031 8 8s-3.582031 8-8 8zm0 0" fill="#aedee2"/><path d="m256 328h16v56h-16zm0 0" fill="#ebebeb"/><path d="m128 208 32 32 32-32 32 32 32-32 32 32 32-32 32 32 24-24-48-88h-176l-53.191406 97.511719zm0 0" fill="#f9f9f9"/></svg><svg height="480pt" viewBox="0 -4 480 480" width="480pt" xmlns="http://www.w3.org/2000/svg"><g fill="#b94137"><path d="m240 440c-4.417969 0-8-3.582031-8-8v-40c0-4.417969 3.582031-8 8-8s8 3.582031 8 8v40c0 4.417969-3.582031 8-8 8zm0 0"/><path d="m288 440c-4.417969 0-8-3.582031-8-8v-40c0-4.417969 3.582031-8 8-8s8 3.582031 8 8v40c0 4.417969-3.582031 8-8 8zm0 0"/><path d="m336 448c-4.417969 0-8-3.582031-8-8v-48c0-4.417969 3.582031-8 8-8s8 3.582031 8 8v48c0 4.417969-3.582031 8-8 8zm0 0"/><path d="m384 456c-4.417969 0-8-3.582031-8-8v-56c0-4.417969 3.582031-8 8-8s8 3.582031 8 8v56c0 4.417969-3.582031 8-8 8zm0 0"/><path d="m432 472c-4.417969 0-8-3.582031-8-8v-72c0-4.417969 3.582031-8 8-8s8 3.582031 8 8v72c0 4.417969-3.582031 8-8 8zm0 0"/><path d="m96 456c-4.417969 0-8-3.582031-8-8v-56c0-4.417969 3.582031-8 8-8s8 3.582031 8 8v56c0 4.417969-3.582031 8-8 8zm0 0"/><path d="m48 472c-4.417969 0-8-3.582031-8-8v-72c0-4.417969 3.582031-8 8-8s8 3.582031 8 8v72c0 4.417969-3.582031 8-8 8zm0 0"/><path d="m144 448c-4.417969 0-8-3.582031-8-8v-48c0-4.417969 3.582031-8 8-8s8 3.582031 8 8v48c0 4.417969-3.582031 8-8 8zm0 0"/><path d="m192 440c-4.417969 0-8-3.582031-8-8v-40c0-4.417969 3.582031-8 8-8s8 3.582031 8 8v40c0 4.417969-3.582031 8-8 8zm0 0"/></g><path d="m380 140c0 77.320312-62.679688 140-140 140s-140-62.679688-140-140 62.679688-140 140-140 140 62.679688 140 140zm0 0" fill="#f55648"/><path d="m472 392h-464l144-264h176zm0 0" fill="#e4e4e2"/><path d="m264 392h-192v-32c0-17.671875 14.328125-32 32-32h160zm0 0" fill="#f9f9f9"/><path d="m72 352h40v16h-40zm0 0" fill="#64a8b2"/><path d="m264 328h208v64h-208zm0 0" fill="#f9f9f9"/><path d="m472 472h-40c-.757812-.003906-1.511719-.109375-2.238281-.320312l-21.761719-6.34375c-109.707031-32.054688-226.292969-32.054688-336 0l-21.761719 6.34375c-.726562.210937-1.480469.316406-2.238281.320312h-40c-4.417969 0-8-3.582031-8-8v-72c0-4.417969 3.582031-8 8-8h464c4.417969 0 8 3.582031 8 8v72c0 4.417969-3.582031 8-8 8zm-38.855469-16h30.855469v-56h-448v56h30.855469l20.664062-6.023438c112.632813-32.921874 232.328125-32.921874 344.960938 0zm0 0" fill="#c7463b"/><path d="m128 352h16v16h-16zm0 0" fill="#64a8b2"/><path d="m160 352h16v16h-16zm0 0" fill="#64a8b2"/><path d="m192 352h16v16h-16zm0 0" fill="#64a8b2"/><path d="m224 352h16v16h-16zm0 0" fill="#64a8b2"/><path d="m288 352h16v16h-16zm0 0" fill="#64a8b2"/><path d="m320 352h16v16h-16zm0 0" fill="#64a8b2"/><path d="m352 352h16v16h-16zm0 0" fill="#64a8b2"/><path d="m384 352h88v16h-88zm0 0" fill="#64a8b2"/><path d="m472 104h-64c-4.417969 0-8-3.582031-8-8s3.582031-8 8-8h64c4.417969 0 8 3.582031 8 8s-3.582031 8-8 8zm0 0" fill="#aedee2"/><path d="m472 168h-64c-4.417969 0-8-3.582031-8-8s3.582031-8 8-8h64c4.417969 0 8 3.582031 8 8s-3.582031 8-8 8zm0 0" fill="#aedee2"/><path d="m424 136h-56c-4.417969 0-8-3.582031-8-8s3.582031-8 8-8h56c4.417969 0 8 3.582031 8 8s-3.582031 8-8 8zm0 0" fill="#aedee2"/><path d="m472 136h-16c-4.417969 0-8-3.582031-8-8s3.582031-8 8-8h16c4.417969 0 8 3.582031 8 8s-3.582031 8-8 8zm0 0" fill="#aedee2"/><path d="m88 16h-48c-4.417969 0-8-3.582031-8-8s3.582031-8 8-8h48c4.417969 0 8 3.582031 8 8s-3.582031 8-8 8zm0 0" fill="#aedee2"/><path d="m144 80h-120c-4.417969 0-8-3.582031-8-8s3.582031-8 8-8h120c4.417969 0 8 3.582031 8 8s-3.582031 8-8 8zm0 0" fill="#aedee2"/><path d="m176 48h-104c-4.417969 0-8-3.582031-8-8s3.582031-8 8-8h104c4.417969 0 8 3.582031 8 8s-3.582031 8-8 8zm0 0" fill="#aedee2"/><path d="m40 48h-32c-4.417969 0-8-3.582031-8-8s3.582031-8 8-8h32c4.417969 0 8 3.582031 8 8s-3.582031 8-8 8zm0 0" fill="#aedee2"/><path d="m136 16h-16c-4.417969 0-8-3.582031-8-8s3.582031-8 8-8h16c4.417969 0 8 3.582031 8 8s-3.582031 8-8 8zm0 0" fill="#aedee2"/><path d="m256 328h16v56h-16zm0 0" fill="#ebebeb"/><path d="m128 208 32 32 32-32 32 32 32-32 32 32 32-32 32 32 24-24-48-88h-176l-53.191406 97.511719zm0 0" fill="#f9f9f9"/></svg>